<?xml version="1.0" encoding="UTF-8" standalone="no"?>
<!-- Created with Inkscape (http://www.inkscape.org/) -->

<svg
   version="1.1"
   id="svg1"
   xml:space="preserve"
   width="460.09564"
   height="466.92242"
   xmlns:inkscape="http://www.inkscape.org/namespaces/inkscape"
   xmlns:sodipodi="http://sodipodi.sourceforge.net/DTD/sodipodi-0.dtd"
   xmlns="http://www.w3.org/2000/svg"
   xmlns:svg="http://www.w3.org/2000/svg"><defs
     id="defs1" /><sodipodi:namedview
     id="namedview1"
     pagecolor="#ffffff"
     bordercolor="#000000"
     borderopacity="0.25"
     inkscape:showpageshadow="2"
     inkscape:pageopacity="0.0"
     inkscape:pagecheckerboard="0"
     inkscape:deskcolor="#d1d1d1" /><inkscape:clipboard
     style="font-variation-settings:normal;opacity:1;vector-effect:none;fill:#000000;fill-opacity:1;stroke-width:1;stroke-linecap:butt;stroke-linejoin:miter;stroke-miterlimit:4;stroke-dasharray:none;stroke-dashoffset:0;stroke-opacity:1;-inkscape-stroke:none;stop-color:#000000;stop-opacity:1"
     min="67.77161,15.593803"
     max="527.86724,482.51623"
     geom-min="67.77161,15.593803"
     geom-max="527.86724,482.51623" /><g
     id="g1"
     transform="translate(-67.77161,-15.593803)"><path
       style="fill:#000000"
       d="m 114.58365,480.79981 c -6.0871,-3.30283 -5.76257,3.6984 -5.76257,-124.3205 v -116.9852 l -17.584315,-0.31446 -17.584313,-0.31446 -2.915687,-3.26577 C 67.423593,231.88843 66.800423,226.2674 69.305651,222.69068 72.593991,217.99592 291.10472,17.799638 294.38154,16.4795 c 2.93127,-1.180929 3.95006,-1.180929 6.89431,0 3.31408,1.329271 221.68734,201.39509 225.0243,206.15927 2.53889,3.62477 1.93559,9.23044 -1.39485,12.96065 l -2.91578,3.26577 -18.58422,0.31185 -18.58422,0.31184 V 356.4767 c 0,128.47789 0.35385,121.10279 -5.96726,124.37157 -2.53038,1.3085 -11.5343,1.51692 -65.53274,1.51692 -68.68146,0 -66.81498,0.15915 -69.98307,-5.96726 -1.30297,-2.51967 -1.51693,-10.83904 -1.51693,-58.98308 v -56.04966 h -45 -45 v 56.04966 c 0,61.48993 0.11296,60.28921 -5.96726,63.43342 -4.35963,2.25445 -127.10942,2.20913 -131.27017,-0.0485 z m 115.23743,-76.48428 c 0,-61.48992 -0.11295,-60.28921 5.96727,-63.43341 4.40962,-2.2803 117.65585,-2.2803 122.06547,0 6.08022,3.1442 5.96726,1.94349 5.96726,63.43341 v 56.04966 h 49.5 49.5 V 343.31553 c 0,-126.86969 -0.24766,-121.02364 5.26035,-124.17069 1.23181,-0.70381 6.32847,-1.50465 11.3259,-1.77965 l 9.08626,-0.5 -94.54026,-87 C 341.9562,82.015196 298.70745,42.865196 297.84501,42.865196 c -0.86244,0 -44.11509,39.15 -96.11701,86.999994 l -94.54894,87 8.07101,0.5 c 4.43906,0.275 9.07885,1.07584 10.31066,1.77965 5.50801,3.14705 5.26035,-2.699 5.26035,124.17069 v 117.04966 h 49.5 49.5 z"
       id="path1" /></g></svg>
